<svg height="20" viewBox="0 0 20 20" width="20" xmlns="http://www.w3.org/2000/svg"><path d="m5.38992245 11.9176481c1.06012986 2.0866631 3.30312871 3.3587168 5.62425295 2.9235442l-2.56662536 5.032593c-4.78732879-.7364882-8.44755004-4.8763503-8.44755004-9.87541049 0-2.01971178.60259363-3.90554362 1.62925751-5.47891276zm9.60805505-10.57838865c1.7519967 1.01546373 3.0799916 2.4772244 3.9280635 4.15103205l-8.2801515-.43521832c-2.34339687-.13392563-4.57527085 1.18283079-5.34526303 3.39224962l-3.0799459-4.73127748c1.91939519-2.38795586 4.79847653-3.70468942 7.74448989-3.71583658 1.70740574-.01114713 3.44820894.42402549 5.03280704 1.33905071zm-1.6292118 8.65911536c0 1.86346899-1.5064955 3.36990959-3.3701064 3.36990959-1.86354236 0-3.37006073-1.5064406-3.37006073-3.36990959 0-1.8635147 1.50651835-3.36990963 3.37006073-3.36990963 1.8636109 0 3.3701064 1.50639493 3.3701064 3.36990963zm1.6292118 8.65911539c-1.7519966 1.0154409-3.6825167 1.4282735-5.55725243 1.3278579l4.51946373-6.9518206c1.2833355-1.9751004 1.2609715-4.55274042-.2678423-6.33813377l5.6354008-.29014554c1.7520194 4.50812901.0000228 9.75270051-4.3297698 12.25224201z" fill="#555"/></svg>